<svg xmlns="http://www.w3.org/2000/svg" viewBox="0 0 32 32" role="img" aria-label="Black Elixir">
  <rect width="32" height="32" rx="6" fill="#0A0A0A"/>
  <rect x="0.5" y="0.5" width="31" height="31" rx="5.5" fill="none" stroke="#C9A98A" stroke-width="0.5" opacity="0.3"/>
  <g fill="none" stroke-linecap="round" stroke-linejoin="round">
  <!-- B — cream serif cap -->
  <g stroke="#F0EDE8" stroke-width="1.6">
    <path d="M9.8 7.8v16.4"/>
    <path d="M9.8 7.8h4.6c2.2 0 3.6 1.1 3.6 2.9s-1.4 2.9-3.6 2.9H9.8"/>
    <path d="M9.8 13.8h4.8c2.4 0 4 1.4 4 3.6s-1.6 3.6-4 3.6H9.8"/>
    <path d="M8.2 7.8h1.6M8.2 24.2h1.6"/>
  </g>
  <!-- E — rose gold serif cap, overlaps B -->
  <g stroke="#D4A5A5" stroke-width="1.6">
    <path d="M17.2 7.8v16.4"/>
    <path d="M17.2 7.8h6.4M17.2 16h5.4M17.2 24.2h6.4"/>
    <path d="M15.6 7.8h1.6M23 7.8h1.6M21.4 16h1.6M23 24.2h1.6"/>
  </g>
  </g>
</svg>
