<svg xmlns="http://www.w3.org/2000/svg" viewBox="0 0 32 32" role="img" aria-label="Black Elixir Spa">
  <rect width="32" height="32" rx="6" fill="#0A0A0A"/>
  <g fill="#8BC84A">
    <path d="M16 21.6 14.7 27.9 16 29 17.3 27.9Z"/>
    <path d="M13.6 22 5.8 24.2 7.6 27.8 13.4 26 15 23Z"/>
    <path d="M18.4 22 26.2 24.2 24.4 27.8 18.6 26 17 23Z"/>
  </g>
  <g fill="#E88AAB">
    <path d="M14.8 8 13.6 6.5 12.9 8.6 14.3 10.2Z"/>
    <path d="M17.2 8 18.4 6.5 19.1 8.6 17.7 10.2Z"/>
    <path d="M14.4 15 8.4 13.4 4.6 17.8 6.8 23.4 12 22.2 14.8 18Z"/>
    <path d="M17.6 15 23.6 13.4 27.4 17.8 25.2 23.4 20 22.2 17.2 18Z"/>
    <path d="M14.9 14.4 10.8 8.8 8.2 11.2 10.4 16.6 13.2 17.4 15 15.6Z"/>
    <path d="M17.1 14.4 21.2 8.8 23.8 11.2 21.6 16.6 18.8 17.4 17 15.6Z"/>
    <path d="M15 14.8 12 9.8 9.6 11.8 11.4 16.8 13.8 17.6 15.3 16Z"/>
    <path d="M17 14.8 20 9.8 22.4 11.8 20.6 16.8 18.2 17.6 16.7 16Z"/>
    <path d="M16 5.2 17.3 6.2 17.6 10.4 17.1 13.4 16 14.6 14.9 13.4 14.4 10.4 14.7 6.2Z"/>
  </g>
</svg>
