<svg xmlns="http://www.w3.org/2000/svg" viewBox="0 0 32 32" role="img" aria-label="Black Elixir Spa">
  <rect width="32" height="32" rx="6" fill="#0A0A0A"/>
  <circle cx="16" cy="16" r="12.5" fill="#D4A5A5"/>
  <g fill="#FAF8F6">
    <path d="M16 6.1 17.05 11.7 16 14.7 14.95 11.7Z"/>
    <path d="M14.85 14.6 11.6 9.8 9.1 12.1 12.1 16.4Z"/>
    <path d="M17.15 14.6 20.4 9.8 22.9 12.1 19.9 16.4Z"/>
    <path d="M14.55 15.4 7.8 13.9 4.2 18.2 8.9 24.2 13.6 21.2Z"/>
    <path d="M17.45 15.4 24.2 13.9 27.8 18.2 23.1 24.2 18.4 21.2Z"/>
    <path d="M13.05 22.6 10.7 26.2 12.9 27.6 14.8 25.2Z"/>
    <path d="M18.95 22.6 21.3 26.2 19.1 27.6 17.2 25.2Z"/>
  </g>
</svg>
